/* XPM */
static char *ab585e0a2c2d47a4b87ff50b3366efb29OFT47HGLx7k0q9s[] = {
/* columns rows colors chars-per-pixel */
"64 64 174 2 ",
"   c None",
".  c #FF650E",
"X  c #FF6A09",
"o  c #FF710B",
"O  c #FF760F",
"+  c #FF6917",
"@  c #FF7113",
"#  c #FF7712",
"$  c #FF7D10",
"%  c #E56326",
"&  c #E66527",
"*  c #E76727",
"=  c #EC6321",
"-  c #E76927",
";  c #E86B27",
":  c #EC6825",
">  c #E86D27",
",  c #E96F27",
"<  c #E36328",
"1  c #E66928",
"2  c #F36F20",
"3  c #E97028",
"4  c #E87029",
"5  c #EA7328",
"6  c #EA7428",
"7  c #EB7628",
"8  c #EB7828",
"9  c #EC7A28",
"0  c #ED7A28",
"q  c #ED7C29",
"w  c #ED7D29",
"e  c #EE7F29",
"r  c #ED7C2A",
"t  c #ED7F2A",
"y  c #F07424",
"u  c #F37A23",
"i  c #F27E26",
"p  c #FF8411",
"a  c #EE8129",
"s  c #EE8329",
"d  c #ED832B",
"f  c #EF8429",
"g  c #ED842A",
"h  c #EF872C",
"j  c #F38426",
"k  c #F08729",
"l  c #F0882A",
"z  c #F18A2A",
"x  c #F08A2B",
"c  c #F18C2A",
"v  c #F28E2A",
"b  c #F2902A",
"n  c #F3912A",
"m  c #F3932B",
"M  c #F69228",
"N  c #F4952B",
"B  c #F5972B",
"V  c #F5992B",
"C  c #F69B2B",
"Z  c #F69D2B",
"A  c #F69F2C",
"S  c #F7A02C",
"D  c #F8A22C",
"F  c #F8A42C",
"G  c #F9A62C",
"H  c #F9A72C",
"J  c #FAAA2C",
"K  c #FAAB2D",
"L  c #FBAD2D",
"P  c #FBAF2D",
"I  c #FCB12D",
"U  c #FCB22D",
"Y  c #FCB32D",
"T  c #FDB52D",
"R  c #FDB62E",
"E  c #FEB82E",
"W  c #FEBA2E",
"Q  c #FFBC2E",
"!  c #2F398D",
"~  c #2E3A8F",
"^  c #2D3A90",
"/  c #2D3A91",
"(  c #2D3B91",
")  c #2C3B92",
"_  c #2C3C93",
"`  c #2B3C95",
"'  c #2A3D95",
"]  c #2A3D96",
"[  c #2A3D97",
"{  c #2C3C94",
"}  c #273F9B",
"|  c #293E98",
" . c #283E9A",
".. c #283F9A",
"X. c #033BB6",
"o. c #0A3EB1",
"O. c #083EB4",
"+. c #26409D",
"@. c #26419E",
"#. c #27419E",
"$. c #2A419A",
"%. c #1F40A3",
"&. c #1542AE",
"*. c #1943AB",
"=. c #1F46AA",
"-. c #1B45AD",
";. c #1E47AC",
":. c #1F48AD",
">. c #1D48AE",
",. c #1C48AF",
"<. c #0340BB",
"1. c #0843BA",
"2. c #1747B2",
"3. c #1649B6",
"4. c #1B49B1",
"5. c #1A4AB2",
"6. c #1C4BB0",
"7. c #194BB5",
"8. c #1A4AB4",
"9. c #1A4DB5",
"0. c #184CB7",
"q. c #134BBB",
"w. c #174CB8",
"e. c #164DBA",
"r. c #154EBB",
"t. c #164FBA",
"y. c #154EBD",
"u. c #154FBD",
"i. c #144FBE",
"p. c #1650BC",
"a. c #1451BF",
"s. c #2142A3",
"d. c #2342A3",
"f. c #2343A3",
"g. c #2541A0",
"h. c #2442A1",
"j. c #2442A3",
"k. c #2243A4",
"l. c #2144A6",
"z. c #2145A7",
"x. c #2045A9",
"c. c #2245A8",
"v. c #003CC0",
"b. c #003DC5",
"n. c #0043C4",
"m. c #0046C6",
"M. c #0040CA",
"N. c #034FCE",
"B. c #104DC0",
"V. c #0D51C6",
"C. c #0E53C7",
"Z. c #0E54C9",
"A. c #0D54CA",
"S. c #0D54CB",
"D. c #0B55CD",
"F. c #0B56CE",
"G. c #0A56CF",
"H. c #0C55CC",
"J. c #1350C0",
"K. c #1250C1",
"L. c #1352C1",
"P. c #1151C3",
"I. c #1052C4",
"U. c #1153C4",
"Y. c #1052C6",
"T. c #0041D0",
"R. c #0046D0",
"E. c #0957D1",
"W. c #0759D5",
"Q. c #065AD7",
"!. c #0958D2",
"~. c #0858D4",
"^. c #055AD8",
"/. c #045BDA",
/* pixels */
"                                                                                                                                ",
"                                                      P.P.J.J.J.i.i.e.w.w.                                                      ",
"                                              Z.Z.C.Y.P.P.J.J.B.i.e.e.w.w.7.8.5.5.;.                                            ",
"                                        F.F.H.Z.Z.Z.Y.V.P.J.J.p.i.w.e.w.7.8.8.5.5.,.:.;.                                        ",
"                                    !.E.F.F.H.H.Z.C.C.P.P.J.J.p.i.e.e.w.w.7.8.6.5.,.:.;.x.x.                                    ",
"                                Q.~.!.E.E.H.H.Z.Z.C.P.U.P.J.B.i.i.i.e.w.w.7.8.5.5.:.,.;.=.x.x.z.                                ",
"                            ^.Q.Q.E.E.E.F.F.H.Z.Z.C.P.Y.P.P.J.a.p.e.e.w.w.7.8.5.6.5.,.=.=.x.z.k.k.j.                            ",
"                          ^.^.Q.Q.~.E.E.F.F.H.Z.Z.C.Y.Y.P.J.J.J.i.e.w.w.w.7.8.5.6.,.,.:.=.x.x.k.k.k.j.                          ",
"                                                    N.V.P.J.J.i.i.i.w.0.w.7.8.5.5.,.;.;.=.x.k.x.f.f.h.j.                        ",
"                                                              p.i.w.e.0.w.7.8.6.6.,.,.;.=.x.x.k.k.f.h.+.+.+.                    ",
"                                                                    e.w.w.7.8.5.5.,.,.;.=.x.x.k.k.f.j.+.+.+.}                   ",
"                                      C B B b m                           8.8.5.6.,.;.;.:.x.k.x.k.f.j.j.+.+.} }                 ",
"                            D A A C C B N N B m b v v x l                   8.5.4.,.,.x.;.x.x.k.k.f.f.} j.+.$.|                 ",
"                        H H D S A A C C B N b b b v z z l k h                 5.4.,.6.;.x.x.k.x.k.f.f.j.+.+.} } |               ",
"                    J H H D D S A C A B B N m b b v v z l k f s                 4.,.,.;.;.x.x.k.f.g.j.} +.+.| +.| `             ",
"                L J J H H H D S A A A B B N m b b v z z l f f s s                 ,.,.x.x.x.x.k.k.f.f.j.+.+.+.| | | `           ",
"              I L L K G G S G A A A C B B B b b b v c z l k f s s s                 ,.=.=.x.x.k.k.g.f.g.+.+.+.$.` | `           ",
"            I L L J K G G G S S A A A B B B B b b v c l l k f s e s                 ,.,.=.x.z.z.k.f.g.g.+.+.+.| | | ` _         ",
"          Y I I L J K G G S G S A A C B B b b b b v v z l k f f s e                 :.:.=.x.z.k.%.g.f.g.+.+.} $.| | ` _         ",
"        R Y I L J K K K G G S S A C C B B B B b b v c z l k f f e e                 :.:.=.x.x.x.k.k.g.g.j.} } | | ` ` ` _       ",
"        R I I L L L J G H H D A A C C B B B b b b v v z l j j s s e                 :.:.=.x.x.k.k.k.j.} +.} | +.+.| ` ` _       ",
"      R R I I I L J J G H D D D A A C C B B B b b v c l l h s s e e                 ,.:.=.x.z.k.k.k.f.g.+.j.+.| ` ` ` _ ( ~     ",
"      R Y I I L L J J H H D D A A A A B B B b b b v v z l l s s s                   ,.=.=.x.x.x.k.k.g.j.+.+.+.+.$.` ` ` ) ~     ",
"    E E R I I I L J J H H D D A A C A B B m m b b v l z l h h s s                 ,.,.=.=.x.k.k.k.k.j.} +.+.} | } ` ` { ) (     ",
"    E E T U U U L J J H H D D D A C C C B m m v v v v z h k s s                   ,.,.;.;.x.x.k.f.f.f.+.+.+.$.+.| ` ' ) ) ) ~   ",
"  E E R T U U L L J J H H D D A A A C B B B m m b v z z z k                     4.,.;.;.x.x.x.k.f.f.f.f.+.} } +.+.` | _ ) ) ~   ",
"  Q E R T U U U L L J H H D D A A C C B B m m m v v v z z                       4.,.,.;.;.x.x.k.f.f.f.+.+.+.} ` ` ` | _ ( ( ~   ",
"  E E R T U L L L J J H H H D A A A A B B B m m b v v                         5.4.6.;.;.x.x.k.x.k.f.@.f.+.+.} +.$.| _ _ ) ( ~   ",
"  E E R R I U L L K J H H H D D A A C B B B b m b                           8.5.,.,.;.;.;.x.;.k.k.g.f.g.+.+.+.| +.| ` _ ) ( ~   ",
"Q Q E R R I U U L K J H H D D A A C C C B b                             7.7.8.5.5.,.,.;.x.;.k.k.k.f.g.g.+.+.+.$.` ` ` ` ) ( ~ ~ ",
"Q Q E R R U U L L K K H H D D A A Z C C                               w.w.7.8.5.,.,.;.;.;.k.;.k.%.g.f.g.+.+.+.| $.` ` ` ( ( ~ ~ ",
"Q E E R T U U L L K H H H D D D A Z                             i.e.e.w.w.7.8.5.5.5.;.;.;.x.k.=.k.f.g.g.+.+.} +.} ` ` { ( ~ ~ ! ",
"Q E E R R Y I L L K J H H S D S                             J.i.i.e.e.w.7.7.8.5.,.,.:.;.;.=.k.k.k.k.j.j.+.+.+.$.` | ` _ _ ~ ~ ~ ",
"Q E E R R I I I L K J H H H D                         P.P.J.J.i.i.e.e.w.w.7.8.5.5.,.,.;.=.=.;.k.k.k.j.+.+.+.+.| } ` ` ` _ _ ~ ! ",
"Q Q E R R I I L L K J H H D                       Z.Y.P.P.J.J.i.i.e.e.w.w.7.8.5.5.,.,.;.=.;.k.k.k.f.j.+.j.+.} } ` | ` _ _ _ ~ ! ",
"Q E E R R I I I L K J H H                       Z.Z.Y.V.P.J.J.i.i.e.e.w.7.7.8.5.,.,.,.;.=.k.k.x.k.f.f.+.+.} } $.} ` ` ` ~ ~ ~ ! ",
"  E E E R I I L L K J H H                   H.Z.Z.V.P.Y.J.J.J.i.i.i.e.w.w.7.8.6.5.:.:.;.=.x.x.k.k.f.g.g.} } } | | $.` ` _ _ ~   ",
"  Q E R R I I L L K J H                   F.H.Z.Z.Z.Y.Y.V.J.J.J.e.p.e.w.w.7.8.5.5.,.,.:.=.x.x.z.k.f.f.g.+.g.} +.| ` ` _ _ ~ ~   ",
"  Q E R R I U P L K J H                   F.F.Z.Z.C.Y.U.P.J.J.i.i.e.e.w.w.7.8.5.6.,.,.:.=.x.z.k.k.f.f.f.j.+.} | | ` ` ` ( ( ~   ",
"  E E R R U U L L K J H                   F.H.Z.Z.C.P.C.P.J.J.i.i.e.w.w.w.7.8.5.6.,.,.=.=.x.z.z.k.f.g.} +.} } } +.` ` ` ) ( ~   ",
"  E E R R I I I L J J H                   F.H.Z.Z.C.V.U.J.J.J.i.i.e.e.w.w.7.8.8.6.,.,.;.=.x.x.k.f.f.f.+.+.+.} $.` ` | _ _ ) ~   ",
"    E R R I I L L L J H                   F.H.H.Z.C.Y.Y.V.J.J.a.i.e.e.w.7.7.8.6.6.,.;.;.=.x.z.z.f.f.f.j.+.+.} +.` } ` _ ~ ~     ",
"    E R Y Y I I L J J H H                   H.H.Z.C.P.C.J.J.J.J.i.i.e.w.w.7.8.5.6.,.,.;.x.x.x.k.f.f.f.+.+.+.+.` +.$.` _ ) ~     ",
"      E R I I L L J J H H D                   S.Z.Z.P.U.P.J.J.J.e.e.e.w.w.7.8.5.,.,.,.;.x.x.x.k.f.f.f.+.+.+.+.+.` ` | _ ) (     ",
"      R T U U L L L J H H D D                     Z.Y.U.P.J.B.i.i.e.e.w.7.7.8.5.8.,.;.;.x.x.k.x.k.f.f.} +.+.+.` | $.` _ )       ",
"      R T T U U L J J H H H D D                     Y.Y.P.J.J.i.i.e.e.w.w.7.8.5.,.,.,.;.x.x.x.k.k.f.f.g.+.+.$.+.| ` ` ` )       ",
"        T U L U L J J H H D D A A                       J.J.J.a.i.e.e.w.w.7.8.5.5.,.,.;.;.x.x.x.k.%.f.} +.+.} +.| ` ` _         ",
"          U U L L J J H H D D A A A C                       p.i.i.e.e.w.7.7.8.5.,.,.,.;.x.x.x.k.k.k.f.g.+.+.} +.` } ` _         ",
"          R I L L L J G G G S S A A C C N N                     i.p.e.3.e.7.8.6.,.,.,.,.=.x.x.k.k.k.j.} j.+.$.| | ` `           ",
"            I L L J J G G S G S A C C B B N B n b                   R.i.7.7.8.6.5.,.:.:.=.x.x.x.k.j.j.j.+.+.} } | | `           ",
"              L L J J K G G S S A A C C B N n n v v v l h                 m.3.6.5.,.:.:.=.x.k.k.f.f.j.} +.+.| +.| `             ",
"              I L L J G G G S S A C C B B N b n b v v z z h s j               T.n.2.:.=.=.x.;.k.f.f.f.j.+.+.+.| |               ",
"                L J J H G G S S A A C C B B m v b v c l l l f s s e i p             M.1.-.x.k.k.f.g.f.} j.} } }                 ",
"                  J J H G S G S A C C B B B m m b v v z l l f f s e e 8 8 u $             b.<.-.k.k.f.} +.} } |                 ",
"                    J H G G S S A A C C B m m v b v v z l f f f k t e 8 e 6 6 6 y # O         &.v.O.f.j.j.+.}                   ",
"                        G G S S A C C B B B m m b v l z l h f f e a 8 e 8 8 8 6 6 3 > 2 @ o         o.X.%.$.                    ",
"                          H S S A C C B B B m m n v v v k k k s e e r r 8 0 6 6 5 3 > > > ; : + X                               ",
"                            D S A A C C N b m m n v l l k k s s s e r r e 6 0 6 5 3 3 > ; * * & < = .                           ",
"                                A A A B B N N m n v v l k k s s e e 8 t 0 0 6 6 5 3 > > ; * * & &                               ",
"                                    A B B N n b n v l l l k k s s e t 8 9 0 6 6 6 3 3 > ; ; * &                                 ",
"                                        B N n n v v v l l k h s s e 8 e 9 8 8 3 6 3 3 > ; 1                                     ",
"                                            m n n v v l l k s s s e e e 9 8 8 8 3 3 3                                           ",
"                                                    v l k k s s e e e 8 8 8 3                                                   ",
"                                                            k s s e e                                                           "
};
