/* XPM */
static char *a0bb304f494940d19316a14c27a693ceP1C0KVJ06YLq1DC4[] = {
/* columns rows colors chars-per-pixel */
"32 32 149 2 ",
"   c None",
".  c #FF6E0C",
"X  c #FF7A0B",
"o  c #FA6619",
"O  c #FF7011",
"+  c #FF7D13",
"@  c #EF6421",
"#  c #E86A27",
"$  c #E96E27",
"%  c #E56728",
"&  c #E97229",
"*  c #EA7228",
"=  c #EB7628",
"-  c #EC7928",
";  c #ED7C29",
":  c #ED7C2A",
">  c #ED7F2B",
",  c #EC7F2C",
"<  c #F17022",
"1  c #F57B23",
"2  c #FF860C",
"3  c #FF9309",
"4  c #FF8912",
"5  c #FF9314",
"6  c #FF901C",
"7  c #FF9918",
"8  c #FFA91A",
"9  c #EE8029",
"0  c #EE8129",
"q  c #EF8429",
"w  c #EE842A",
"e  c #EE862C",
"r  c #EF862C",
"t  c #F38527",
"y  c #F68525",
"u  c #F78624",
"i  c #F0872A",
"p  c #F18B2A",
"a  c #F48B29",
"s  c #F18E2B",
"d  c #F28F2A",
"f  c #F28F2B",
"g  c #FF9221",
"h  c #F3922B",
"j  c #F79329",
"k  c #F6922A",
"l  c #F4972B",
"z  c #F2922C",
"x  c #F3962D",
"c  c #F59A2B",
"v  c #F69E2B",
"b  c #F49A2C",
"n  c #F4992E",
"m  c #F59D2D",
"M  c #F89829",
"N  c #F89B29",
"B  c #FDA027",
"V  c #F7A22C",
"C  c #F6A12E",
"Z  c #F8A52C",
"A  c #F9A52C",
"S  c #F8A52D",
"D  c #F9A82C",
"F  c #FAA82C",
"G  c #FAA92C",
"H  c #FBAD2D",
"J  c #FBB02D",
"K  c #FCB02D",
"L  c #FCB12D",
"P  c #FDB32D",
"I  c #FDB42D",
"U  c #FEB82E",
"Y  c #FFBB2E",
"T  c #F6A030",
"R  c #2E398E",
"E  c #2F398E",
"W  c #2D3B91",
"Q  c #2B3C94",
"!  c #2B3C95",
"~  c #293D97",
"^  c #2A3D97",
"/  c #293E98",
"(  c #283F9A",
")  c #283F9B",
"_  c #1E3FA2",
"`  c #073DB4",
"'  c #26409E",
"]  c #27409E",
"[  c #30459C",
"{  c #1240AF",
"}  c #1E46AA",
"|  c #1F46AA",
" . c #1D47AD",
".. c #1D49AF",
"X. c #1E49AF",
"o. c #0843BB",
"O. c #1A4AB3",
"+. c #1C49B0",
"@. c #1D4BB1",
"#. c #1B4CB3",
"$. c #184AB4",
"%. c #184BB6",
"&. c #194EB7",
"*. c #174DB9",
"=. c #134EBD",
"-. c #134FBF",
";. c #144EBC",
":. c #154EBC",
">. c #184DB8",
",. c #194EB8",
"<. c #1550BD",
"1. c #2441A1",
"2. c #2343A4",
"3. c #2245A5",
"4. c #2145A6",
"5. c #003EC1",
"6. c #0040C0",
"7. c #0346C4",
"8. c #0044C6",
"9. c #0040CC",
"0. c #034FCE",
"q. c #0D50C5",
"w. c #0C51C7",
"e. c #0952CB",
"r. c #0E53C8",
"t. c #0E57C9",
"y. c #0D54CB",
"u. c #0D55CB",
"i. c #0E56CA",
"p. c #0B56CF",
"a. c #0C57CC",
"s. c #1352C0",
"d. c #1251C2",
"f. c #1253C3",
"g. c #1052C5",
"h. c #1054C5",
"j. c #0043D6",
"k. c #0048D2",
"l. c #004FD4",
"z. c #0759D5",
"x. c #0958D2",
"c. c #0050D9",
"v. c #0058DD",
"b. c #0046E0",
"n. c #0045E4",
"m. c #004BE1",
"M. c #004DE7",
"N. c #004EEB",
"B. c #0051E8",
/* pixels */
"                              -.:.                              ",
"                      i.r.g.d.-.:.*.%.O.@.                      ",
"                x.x.p.i.r.g.d.-.:.*.%.O.+. .4.4.                ",
"              v.B.N.N.m.l.r.d.-.:.*.%.O.@. . .4.2.              ",
"                            b.k.:.,.%.O.@. . .4.2.1.            ",
"                                    #.O... .4.4.2.1.'           ",
"              8 N N M j g 5 3         @.O. .4.4.2.1.' )         ",
"          F A V v c l h s s w u          . . .4.2.1.' ) ^       ",
"      K H F A V v b c h d p i q ,          .} 4.2.1.' ) ^ Q     ",
"    I K H F A V v b l h s p i t q         ..4.4.2.1.' ) ) Q     ",
"    I K H F A V v c l h s p i i ;          .} 4.2.1.' ) ) W W   ",
"  Y K J H F A V v c l h s p i w ;          .} 4.2.1.' ) ^ ^ W   ",
"  Y I K H F A V v c l h d a r t         .. .} 4.2.1.] ) ^ ^ R   ",
"Y I K J H F A V v c l h s a             .. .} 4.2.' ] ) ) Q W R ",
"Y I I J H F A V v b x h               #.....} 2.2.1.] ) ) ! W R ",
"Y Y I J H F A V v b               #.%.%... .} | 2.1.] ] ^ ! W E ",
"Y Y J J H F A T             q.:.:.*.,.%.+. .} 4.2.1.' ) ) Q W E ",
"Y Y I J H F A           e.d.s.d.:.*.%.O.+. .4.4.2.1.' ) ) Q W E ",
"Y I I J H F           a.r.g.d.s.*.*.%.O.+. .4.4.2.1.' ) ) ! W E ",
"  U I J H F         y.y.r.g.d.:.:.*.%.O.@. . .4.2.1.' ) ! ! W E ",
"  U K J H F           i.r.g.d.s.:.*.%.O... . .4.2.1.' ) ) ! W   ",
"  U I J H F A         c.h.g.d.s.:.*.%.O.O. .4.4.2.1.' ( ^ Q W   ",
"    I K H F A T           0.d.s.:.*.%.O. . .} 4.2.1.' ( ) W W   ",
"    I K H F A V v           b.k.-.>.%.O.O.} } 4.2.1.' ( ^ ^     ",
"      K H F A S v b x 7           j.8.%.@. .4.4.2.1.' ) ^ ^     ",
"      K H F A V v c l h s 6 3         8.5.o. .4.2.1.' ) ^       ",
"        H F A V v c l h h p i y 4 2         6.5.{ 1.' )         ",
"          F A V v c l h s p i q q ; 1 + +       [ ` _           ",
"              V v c l h s p i q q ; - = * < O . @               ",
"                v c l h s p i q ; ; - = * $ # % o               ",
"                    l h s p p q q ; - = * $                     ",
"                              w ; ;                             "
};
