/* XPM */
static char *a9fe73d854ef47e5bb639d3b3dfc4d0fnFPXJ1hda4YogUiU[] = {
/* columns rows colors chars-per-pixel */
"16 16 101 2 ",
"   c None",
".  c #FF6F0D",
"X  c #FF780F",
"o  c #FC7A1D",
"O  c #DF752F",
"+  c #EB7728",
"@  c #EE7F29",
"#  c #EF7F29",
"$  c #FF9000",
"%  c #FF900D",
"&  c #FF970E",
"*  c #FF990A",
"=  c #FF9F0E",
"-  c #FF8710",
";  c #FF8C15",
":  c #FFA00D",
">  c #FFA80D",
",  c #FFAE11",
"<  c #FFA31A",
"1  c #FDA91E",
"2  c #EF862A",
"3  c #EF8C2C",
"4  c #F68624",
"5  c #F68725",
"6  c #F08629",
"7  c #F18D2A",
"8  c #F08D2B",
"9  c #FC9023",
"0  c #F4942B",
"q  c #F3932D",
"w  c #F8952A",
"e  c #F69C2B",
"r  c #F59B2D",
"t  c #FB9D28",
"y  c #FBA625",
"u  c #FFAE25",
"i  c #FDAD27",
"p  c #F7A22E",
"a  c #F9A32B",
"s  c #F8A32C",
"d  c #F8A42C",
"f  c #FAA92D",
"g  c #FAAA2C",
"h  c #FBAB2C",
"j  c #FAAB2D",
"k  c #F9AA2E",
"l  c #FCB22D",
"z  c #FCB32D",
"x  c #FEBA2E",
"c  c #F7A130",
"v  c #2E3A8F",
"b  c #2E3A90",
"n  c #2B3D95",
"m  c #2A3D96",
"M  c #2B3D96",
"N  c #273F9B",
"B  c #1F3EA0",
"V  c #003FBE",
"C  c #27409C",
"Z  c #29409A",
"A  c #1B41A8",
"S  c #1E48AD",
"D  c #1D48AE",
"F  c #0B48BF",
"G  c #0E49BD",
"H  c #1245B6",
"J  c #1546B4",
"K  c #1B4BB3",
"L  c #1B4CB3",
"P  c #194BB5",
"I  c #184AB7",
"U  c #154DBB",
"Y  c #174DBA",
"T  c #164DBB",
"R  c #144DBC",
"E  c #1350BF",
"W  c #1551BE",
"Q  c #2442A2",
"!  c #2041A5",
"~  c #2145A7",
"^  c #2045A8",
"/  c #2045A9",
"(  c #2149AB",
")  c #2249AA",
"_  c #544E87",
"`  c #0040C7",
"'  c #0A47C1",
"]  c #0F53C7",
"[  c #0B52C8",
"{  c #1350C0",
"}  c #0044D4",
"|  c #0044D6",
" . c #004AD2",
".. c #0046DC",
"X. c #0045DE",
"o. c #004BDC",
"O. c #0048E5",
"+. c #004BE8",
"@. c #004DEF",
"#. c #0044F5",
"$. c #0040FF",
/* pixels */
"            ] { T P             ",
"        @.+.O. .T P D ^         ",
"                } ' ) ^ Q       ",
"      , > : * ;     H ^ Q N     ",
"  z f a e 0 8 4 $     ^ Q C n   ",
"  z f s e 0 3 5       ~ Q C n   ",
"x z f s r w &       J S Q C n b ",
"x z g p <         F ) ^ Q C M v ",
"x z f 1       X.T L D ^ Q C M v ",
"x z u     $.[ W T P D ^ Q C M v ",
"x z i     #.o.E T P D ~ Q C M b ",
"  z f y       X.| G D ~ Q C M   ",
"    f p t :       P ` V A N n   ",
"    j d e q 9 % - O   _ ~ B     ",
"        e 0 8 2 # o X .         ",
"            8 2 # +             "
};
